<mxfile host="app.diagrams.net" modified="2021-03-19T09:58:36.545Z" agent="5.0 (Macintosh; Intel Mac OS X 10_15_7) AppleWebKit/537.36 (KHTML, like Gecko) Chrome/89.0.4389.90 Safari/537.36" etag="wKolCynR2UVWiJWopAX-" version="12.9.12" type="github">
  <diagram name="Page-1" id="97916047-d0de-89f5-080d-49f4d83e522f">
    <mxGraphModel dx="1426" dy="727" grid="1" gridSize="10" guides="1" tooltips="1" connect="1" arrows="1" fold="1" page="1" pageScale="1.5" pageWidth="1169" pageHeight="827" background="#ffffff" math="0" shadow="0">
      <root>
        <mxCell id="0" />
        <mxCell id="1" parent="0" />
        <mxCell id="pu0gVsfQe49mKNLwU6cX-56" style="edgeStyle=orthogonalEdgeStyle;rounded=0;orthogonalLoop=1;jettySize=auto;html=1;exitX=1;exitY=0.5;exitDx=0;exitDy=0;entryX=0;entryY=0.5;entryDx=0;entryDy=0;strokeWidth=3;curved=1;" edge="1" parent="1" source="7" target="pu0gVsfQe49mKNLwU6cX-55">
          <mxGeometry relative="1" as="geometry" />
        </mxCell>
        <mxCell id="7" value="Istio-pliot" style="rounded=1;fillColor=#10739E;strokeColor=none;shadow=1;gradientColor=none;fontStyle=1;fontColor=#FFFFFF;fontSize=14;" parent="1" vertex="1">
          <mxGeometry x="70" y="250" width="200" height="60" as="geometry" />
        </mxCell>
        <mxCell id="pu0gVsfQe49mKNLwU6cX-55" value="initMeshConfiguration" style="rounded=1;fillColor=#10739E;strokeColor=none;shadow=1;gradientColor=none;fontStyle=1;fontColor=#FFFFFF;fontSize=14;" vertex="1" parent="1">
          <mxGeometry x="370" y="80" width="200" height="60" as="geometry" />
        </mxCell>
        <mxCell id="pu0gVsfQe49mKNLwU6cX-57" value="initMeshNetworks" style="rounded=1;fillColor=#10739E;strokeColor=none;shadow=1;gradientColor=none;fontStyle=1;fontColor=#FFFFFF;fontSize=14;" vertex="1" parent="1">
          <mxGeometry x="370" y="210" width="200" height="60" as="geometry" />
        </mxCell>
        <mxCell id="pu0gVsfQe49mKNLwU6cX-58" value="initMeshConfiguration" style="rounded=1;fillColor=#10739E;strokeColor=none;shadow=1;gradientColor=none;fontStyle=1;fontColor=#FFFFFF;fontSize=14;" vertex="1" parent="1">
          <mxGeometry x="360" y="430" width="200" height="60" as="geometry" />
        </mxCell>
        <mxCell id="pu0gVsfQe49mKNLwU6cX-59" value="initMeshHandlers" style="rounded=1;fillColor=#10739E;strokeColor=none;shadow=1;gradientColor=none;fontStyle=1;fontColor=#FFFFFF;fontSize=14;" vertex="1" parent="1">
          <mxGeometry x="370" y="320" width="200" height="60" as="geometry" />
        </mxCell>
      </root>
    </mxGraphModel>
  </diagram>
</mxfile>
